<svg width="120" height="120" viewBox="0 0 120 120" fill="none" xmlns="http://www.w3.org/2000/svg">
<rect width="120" height="120" fill="#BF945D"></rect>
<g clip-path="url(#clip0_40001367_71991)">
<mask id="mask0_40001367_71991" style="mask-type:luminance" maskUnits="userSpaceOnUse" x="34" y="21" width="52" height="77">
<path d="M86 21.332H34V97.624H86V21.332Z" fill="white"></path>
</mask>
<g mask="url(#mask0_40001367_71991)">
<path d="M40.2708 34.0174C40.1142 34.4895 40.004 34.9754 39.9417 35.4685C35.6385 36.9197 33.8531 39.8954 34.0094 44.9663V97.5994H49.4449V26.0522C45.0594 28.229 41.324 30.8052 40.2708 34.0174Z" fill="white"></path>
<path d="M79.7397 34.0174C79.8934 34.4898 80.0009 34.9757 80.0605 35.4685C84.3636 36.9197 86.1574 39.8954 85.9926 44.9663V97.5994H70.582V26.0522C75.0499 28.229 78.7028 30.8052 79.7644 34.0174" fill="white"></path>
<path d="M60.1653 21.3076C57.5376 22.2507 54.9712 23.3534 52.4805 24.6094V97.5996H67.5868V24.5279C65.1793 23.322 62.7073 22.247 60.1817 21.3076" fill="white"></path>
<path d="M44.6479 88.3382L39.9415 75.4653H38.7238H37.7447H37.4238V90.5966H38.7238V77.8782L43.3561 90.5966H44.6479H45.9479V75.4653H44.6479V88.3382Z" fill="#BF945D"></path>
<path d="M82.9897 75.4653H81.6898V85.8433C81.6898 87.1315 81.3607 89.4632 79.2215 89.4632C78.8537 89.5004 78.4821 89.445 78.1412 89.3026C77.8004 89.1599 77.5013 88.9349 77.2713 88.6479C76.7866 87.7593 76.5615 86.7543 76.6215 85.7458V75.4653H74.3422V86.3246C74.3012 87.0272 74.3566 87.732 74.5069 88.4198C74.6811 88.9041 74.9624 89.3444 75.3298 89.7076C75.7621 90.1031 76.2533 90.4303 76.7862 90.6778C77.3654 90.8577 77.9651 90.9648 78.5713 90.9959C80.0444 90.9959 81.1796 90.6778 81.7474 89.8709C82.4394 88.9113 82.7818 87.7468 82.7184 86.569V75.4653H82.9897Z" fill="#BF945D"></path>
<path d="M62.4364 82.7862C63.4155 82.3049 64.0819 81.1556 64.0819 79.3295C64.0819 75.7096 60.9142 75.5464 59.2851 75.5464H55.6978V90.694H59.4332C61.2186 90.694 64.5509 90.6939 64.5509 86.422C64.5509 84.2535 63.5718 83.2834 62.4364 82.8025M58.1332 76.6065H59.4332C60.5686 76.6065 62.0332 76.6065 62.0332 79.3458C62.0332 82.4028 60.5686 82.24 59.4332 82.24H58.1332V76.6065ZM59.3509 89.6505H58.0509V83.4546H59.3509C60.6509 83.4546 62.1155 83.4546 62.1155 86.5119C62.1155 89.5689 60.6509 89.6262 59.3509 89.6262V89.6505Z" fill="#BF945D"></path>
</g>
</g>
<defs>
<clipPath id="clip0_40001367_71991">
<rect width="52" height="76.292" fill="white" transform="translate(34 21.332)"></rect>
</clipPath>
</defs>
</svg>