<svg width="120" height="120" viewBox="0 0 120 120" fill="none" xmlns="http://www.w3.org/2000/svg">
<rect width="120" height="120" fill="#0070FF"></rect>
<path fill-rule="evenodd" clip-rule="evenodd" d="M67.3358 34.0819C65.8255 27.5633 62.0238 22.2718 61.503 21.4282C60.6698 22.6552 57.6492 27.3077 56.1129 32.497C54.4464 38.2742 54.186 43.4123 54.7589 48.4482C55.3317 53.5097 57.519 58.6734 57.519 58.6734C58.6648 61.383 60.4094 64.2972 61.5291 65.7287C63.1695 63.6326 66.9713 57.3441 68.1691 49.1384C68.82 44.5627 68.8461 40.5748 67.3358 34.0819ZM61.503 64.1183C60.7739 62.7379 59.6022 60.1305 59.498 56.0915C59.472 52.1804 61.0604 48.8317 61.5291 48.1415C61.9457 48.8317 63.3258 51.7714 63.482 55.7592C63.5862 59.6703 62.2582 62.7379 61.503 64.1438V64.1183ZM66.8931 45.125C66.8411 47.6046 66.5286 50.2376 66.138 51.797C66.2682 49.1129 65.9557 45.304 65.3048 42.3131C64.6798 39.3478 62.8831 34.3886 61.4509 32.088C60.1229 34.2608 58.5085 38.5554 57.6492 42.2876C56.7899 46.0197 56.7639 50.5188 56.7639 51.8736C56.5295 50.7233 55.9567 46.6588 56.1389 42.5943C56.2691 39.22 57.0764 35.769 57.519 34.1586C59.1855 28.8415 61.0864 25.4416 61.4509 24.9048C61.8155 25.4416 64.2111 29.6339 65.435 34.0307C66.6848 38.4276 66.9192 42.6454 66.8671 45.125H66.8931Z" fill="white"></path>
<path fill-rule="evenodd" clip-rule="evenodd" d="M64.0795 67.2629H52.5701V74.8551C52.5701 74.8551 52.5701 74.8551 52.5962 74.8295C55.3042 72.171 59.7049 72.171 62.4129 74.8295C65.121 77.4881 65.121 81.8082 62.4129 84.4668C62.4129 84.4668 62.4129 84.4668 62.3869 84.4923C62.3869 84.4923 62.3609 84.4923 62.3348 84.5179C59.6267 87.1509 56.0854 88.4801 52.5701 88.4801C49.0548 88.4801 45.4614 87.1509 42.7533 84.4923C37.9881 79.8143 37.4153 72.5544 41.0608 67.2629C41.5555 66.5472 42.1284 65.857 42.7533 65.2435C45.4614 62.5849 49.0027 61.2556 52.5701 61.2556V43.0293C38.9256 43.0293 27.8589 53.8935 27.8589 67.2629C27.8589 80.6579 38.9256 91.5221 52.5701 91.5221C59.6788 91.5221 66.0845 88.5568 70.5893 83.8533V67.2885H64.0795V67.2629Z" fill="white"></path>
<path d="M86.0578 89.145V70.024H86.7088C86.9952 70.024 87.2035 70.1262 87.3858 70.3563C87.542 70.5608 87.6462 70.8675 87.6462 71.251V87.918C87.6462 88.3014 87.542 88.6082 87.3858 88.8127C87.2035 89.0172 86.9952 89.145 86.7088 89.145H86.0578ZM81.0582 91.8547H88.896C89.7553 91.8547 90.4584 91.7013 90.9531 91.4201C91.4479 91.1389 91.8385 90.7555 92.0728 90.3209C92.3072 89.8608 92.4634 89.4006 92.5155 88.8894C92.5936 88.4037 92.6197 87.918 92.5936 87.4834V71.7111C92.5936 71.2765 92.5936 70.7908 92.5155 70.3051C92.4374 69.7939 92.3072 69.3338 92.0728 68.8736C91.8385 68.4135 91.4479 68.0556 90.9531 67.7744C90.4584 67.4932 89.7553 67.3398 88.896 67.3398H81.0582V91.8547ZM73.8193 91.8547H78.8189V67.3398H73.8193V91.8547Z" fill="white"></path>
</svg>